%TF.GenerationSoftware,KiCad,Pcbnew,9.0.6*%
%TF.CreationDate,2026-04-05T02:04:30+05:30*%
%TF.ProjectId,pathFinder,70617468-4669-46e6-9465-722e6b696361,rev?*%
%TF.SameCoordinates,Original*%
%TF.FileFunction,Legend,Top*%
%TF.FilePolarity,Positive*%
%FSLAX46Y46*%
G04 Gerber Fmt 4.6, Leading zero omitted, Abs format (unit mm)*
G04 Created by KiCad (PCBNEW 9.0.6) date 2026-04-05 02:04:30*
%MOMM*%
%LPD*%
G01*
G04 APERTURE LIST*
%ADD10C,0.150000*%
%ADD11C,0.101600*%
%ADD12C,0.120000*%
%ADD13C,0.127000*%
%ADD14C,0.200000*%
%ADD15C,0.100000*%
%ADD16C,0.504000*%
G04 APERTURE END LIST*
D10*
X182604819Y-95095238D02*
X182128628Y-95428571D01*
X182604819Y-95666666D02*
X181604819Y-95666666D01*
X181604819Y-95666666D02*
X181604819Y-95285714D01*
X181604819Y-95285714D02*
X181652438Y-95190476D01*
X181652438Y-95190476D02*
X181700057Y-95142857D01*
X181700057Y-95142857D02*
X181795295Y-95095238D01*
X181795295Y-95095238D02*
X181938152Y-95095238D01*
X181938152Y-95095238D02*
X182033390Y-95142857D01*
X182033390Y-95142857D02*
X182081009Y-95190476D01*
X182081009Y-95190476D02*
X182128628Y-95285714D01*
X182128628Y-95285714D02*
X182128628Y-95666666D01*
X181604819Y-94809523D02*
X182604819Y-94476190D01*
X182604819Y-94476190D02*
X181604819Y-94142857D01*
X182604819Y-93285714D02*
X182604819Y-93857142D01*
X182604819Y-93571428D02*
X181604819Y-93571428D01*
X181604819Y-93571428D02*
X181747676Y-93666666D01*
X181747676Y-93666666D02*
X181842914Y-93761904D01*
X181842914Y-93761904D02*
X181890533Y-93857142D01*
X131166667Y-85533200D02*
X131309524Y-85580819D01*
X131309524Y-85580819D02*
X131547619Y-85580819D01*
X131547619Y-85580819D02*
X131642857Y-85533200D01*
X131642857Y-85533200D02*
X131690476Y-85485580D01*
X131690476Y-85485580D02*
X131738095Y-85390342D01*
X131738095Y-85390342D02*
X131738095Y-85295104D01*
X131738095Y-85295104D02*
X131690476Y-85199866D01*
X131690476Y-85199866D02*
X131642857Y-85152247D01*
X131642857Y-85152247D02*
X131547619Y-85104628D01*
X131547619Y-85104628D02*
X131357143Y-85057009D01*
X131357143Y-85057009D02*
X131261905Y-85009390D01*
X131261905Y-85009390D02*
X131214286Y-84961771D01*
X131214286Y-84961771D02*
X131166667Y-84866533D01*
X131166667Y-84866533D02*
X131166667Y-84771295D01*
X131166667Y-84771295D02*
X131214286Y-84676057D01*
X131214286Y-84676057D02*
X131261905Y-84628438D01*
X131261905Y-84628438D02*
X131357143Y-84580819D01*
X131357143Y-84580819D02*
X131595238Y-84580819D01*
X131595238Y-84580819D02*
X131738095Y-84628438D01*
X132071429Y-84580819D02*
X132309524Y-85580819D01*
X132309524Y-85580819D02*
X132500000Y-84866533D01*
X132500000Y-84866533D02*
X132690476Y-85580819D01*
X132690476Y-85580819D02*
X132928572Y-84580819D01*
X133261905Y-84676057D02*
X133309524Y-84628438D01*
X133309524Y-84628438D02*
X133404762Y-84580819D01*
X133404762Y-84580819D02*
X133642857Y-84580819D01*
X133642857Y-84580819D02*
X133738095Y-84628438D01*
X133738095Y-84628438D02*
X133785714Y-84676057D01*
X133785714Y-84676057D02*
X133833333Y-84771295D01*
X133833333Y-84771295D02*
X133833333Y-84866533D01*
X133833333Y-84866533D02*
X133785714Y-85009390D01*
X133785714Y-85009390D02*
X133214286Y-85580819D01*
X133214286Y-85580819D02*
X133833333Y-85580819D01*
X131086667Y-64033200D02*
X131229524Y-64080819D01*
X131229524Y-64080819D02*
X131467619Y-64080819D01*
X131467619Y-64080819D02*
X131562857Y-64033200D01*
X131562857Y-64033200D02*
X131610476Y-63985580D01*
X131610476Y-63985580D02*
X131658095Y-63890342D01*
X131658095Y-63890342D02*
X131658095Y-63795104D01*
X131658095Y-63795104D02*
X131610476Y-63699866D01*
X131610476Y-63699866D02*
X131562857Y-63652247D01*
X131562857Y-63652247D02*
X131467619Y-63604628D01*
X131467619Y-63604628D02*
X131277143Y-63557009D01*
X131277143Y-63557009D02*
X131181905Y-63509390D01*
X131181905Y-63509390D02*
X131134286Y-63461771D01*
X131134286Y-63461771D02*
X131086667Y-63366533D01*
X131086667Y-63366533D02*
X131086667Y-63271295D01*
X131086667Y-63271295D02*
X131134286Y-63176057D01*
X131134286Y-63176057D02*
X131181905Y-63128438D01*
X131181905Y-63128438D02*
X131277143Y-63080819D01*
X131277143Y-63080819D02*
X131515238Y-63080819D01*
X131515238Y-63080819D02*
X131658095Y-63128438D01*
X131991429Y-63080819D02*
X132229524Y-64080819D01*
X132229524Y-64080819D02*
X132420000Y-63366533D01*
X132420000Y-63366533D02*
X132610476Y-64080819D01*
X132610476Y-64080819D02*
X132848572Y-63080819D01*
X133753333Y-64080819D02*
X133181905Y-64080819D01*
X133467619Y-64080819D02*
X133467619Y-63080819D01*
X133467619Y-63080819D02*
X133372381Y-63223676D01*
X133372381Y-63223676D02*
X133277143Y-63318914D01*
X133277143Y-63318914D02*
X133181905Y-63366533D01*
X158333333Y-69034819D02*
X158000000Y-68558628D01*
X157761905Y-69034819D02*
X157761905Y-68034819D01*
X157761905Y-68034819D02*
X158142857Y-68034819D01*
X158142857Y-68034819D02*
X158238095Y-68082438D01*
X158238095Y-68082438D02*
X158285714Y-68130057D01*
X158285714Y-68130057D02*
X158333333Y-68225295D01*
X158333333Y-68225295D02*
X158333333Y-68368152D01*
X158333333Y-68368152D02*
X158285714Y-68463390D01*
X158285714Y-68463390D02*
X158238095Y-68511009D01*
X158238095Y-68511009D02*
X158142857Y-68558628D01*
X158142857Y-68558628D02*
X157761905Y-68558628D01*
X159285714Y-69034819D02*
X158714286Y-69034819D01*
X159000000Y-69034819D02*
X159000000Y-68034819D01*
X159000000Y-68034819D02*
X158904762Y-68177676D01*
X158904762Y-68177676D02*
X158809524Y-68272914D01*
X158809524Y-68272914D02*
X158714286Y-68320533D01*
X147759524Y-67154295D02*
X147759524Y-66354295D01*
X147759524Y-66354295D02*
X147950000Y-66354295D01*
X147950000Y-66354295D02*
X148064286Y-66392390D01*
X148064286Y-66392390D02*
X148140476Y-66468580D01*
X148140476Y-66468580D02*
X148178571Y-66544771D01*
X148178571Y-66544771D02*
X148216667Y-66697152D01*
X148216667Y-66697152D02*
X148216667Y-66811438D01*
X148216667Y-66811438D02*
X148178571Y-66963819D01*
X148178571Y-66963819D02*
X148140476Y-67040009D01*
X148140476Y-67040009D02*
X148064286Y-67116200D01*
X148064286Y-67116200D02*
X147950000Y-67154295D01*
X147950000Y-67154295D02*
X147759524Y-67154295D01*
X148483333Y-66354295D02*
X148978571Y-66354295D01*
X148978571Y-66354295D02*
X148711905Y-66659057D01*
X148711905Y-66659057D02*
X148826190Y-66659057D01*
X148826190Y-66659057D02*
X148902381Y-66697152D01*
X148902381Y-66697152D02*
X148940476Y-66735247D01*
X148940476Y-66735247D02*
X148978571Y-66811438D01*
X148978571Y-66811438D02*
X148978571Y-67001914D01*
X148978571Y-67001914D02*
X148940476Y-67078104D01*
X148940476Y-67078104D02*
X148902381Y-67116200D01*
X148902381Y-67116200D02*
X148826190Y-67154295D01*
X148826190Y-67154295D02*
X148597619Y-67154295D01*
X148597619Y-67154295D02*
X148521428Y-67116200D01*
X148521428Y-67116200D02*
X148483333Y-67078104D01*
D11*
X165283479Y-73228809D02*
X165797526Y-73228809D01*
X165797526Y-73228809D02*
X165858002Y-73198571D01*
X165858002Y-73198571D02*
X165888241Y-73168333D01*
X165888241Y-73168333D02*
X165918479Y-73107857D01*
X165918479Y-73107857D02*
X165918479Y-72986904D01*
X165918479Y-72986904D02*
X165888241Y-72926428D01*
X165888241Y-72926428D02*
X165858002Y-72896190D01*
X165858002Y-72896190D02*
X165797526Y-72865952D01*
X165797526Y-72865952D02*
X165283479Y-72865952D01*
X165918479Y-72230952D02*
X165918479Y-72593809D01*
X165918479Y-72412381D02*
X165283479Y-72412381D01*
X165283479Y-72412381D02*
X165374193Y-72472857D01*
X165374193Y-72472857D02*
X165434669Y-72533333D01*
X165434669Y-72533333D02*
X165464907Y-72593809D01*
D10*
X158833333Y-93034819D02*
X158500000Y-92558628D01*
X158261905Y-93034819D02*
X158261905Y-92034819D01*
X158261905Y-92034819D02*
X158642857Y-92034819D01*
X158642857Y-92034819D02*
X158738095Y-92082438D01*
X158738095Y-92082438D02*
X158785714Y-92130057D01*
X158785714Y-92130057D02*
X158833333Y-92225295D01*
X158833333Y-92225295D02*
X158833333Y-92368152D01*
X158833333Y-92368152D02*
X158785714Y-92463390D01*
X158785714Y-92463390D02*
X158738095Y-92511009D01*
X158738095Y-92511009D02*
X158642857Y-92558628D01*
X158642857Y-92558628D02*
X158261905Y-92558628D01*
X159214286Y-92130057D02*
X159261905Y-92082438D01*
X159261905Y-92082438D02*
X159357143Y-92034819D01*
X159357143Y-92034819D02*
X159595238Y-92034819D01*
X159595238Y-92034819D02*
X159690476Y-92082438D01*
X159690476Y-92082438D02*
X159738095Y-92130057D01*
X159738095Y-92130057D02*
X159785714Y-92225295D01*
X159785714Y-92225295D02*
X159785714Y-92320533D01*
X159785714Y-92320533D02*
X159738095Y-92463390D01*
X159738095Y-92463390D02*
X159166667Y-93034819D01*
X159166667Y-93034819D02*
X159785714Y-93034819D01*
X147179524Y-90654295D02*
X147179524Y-89854295D01*
X147179524Y-89854295D02*
X147370000Y-89854295D01*
X147370000Y-89854295D02*
X147484286Y-89892390D01*
X147484286Y-89892390D02*
X147560476Y-89968580D01*
X147560476Y-89968580D02*
X147598571Y-90044771D01*
X147598571Y-90044771D02*
X147636667Y-90197152D01*
X147636667Y-90197152D02*
X147636667Y-90311438D01*
X147636667Y-90311438D02*
X147598571Y-90463819D01*
X147598571Y-90463819D02*
X147560476Y-90540009D01*
X147560476Y-90540009D02*
X147484286Y-90616200D01*
X147484286Y-90616200D02*
X147370000Y-90654295D01*
X147370000Y-90654295D02*
X147179524Y-90654295D01*
X148398571Y-90654295D02*
X147941428Y-90654295D01*
X148170000Y-90654295D02*
X148170000Y-89854295D01*
X148170000Y-89854295D02*
X148093809Y-89968580D01*
X148093809Y-89968580D02*
X148017619Y-90044771D01*
X148017619Y-90044771D02*
X147941428Y-90082866D01*
D12*
%TO.C,RV1*%
X169480000Y-89330000D02*
X169480000Y-93267000D01*
X169480000Y-97634000D02*
X169480000Y-101570000D01*
X171130000Y-89330000D02*
X169480000Y-89330000D01*
X173629000Y-89330000D02*
X172870000Y-89330000D01*
X175750000Y-89330000D02*
X175370000Y-89330000D01*
X179521000Y-89330000D02*
X178200000Y-89330000D01*
X179521000Y-89330000D02*
X179521000Y-93267000D01*
X179521000Y-97634000D02*
X179521000Y-101570000D01*
X179521000Y-101570000D02*
X169480000Y-101570000D01*
%TO.C,SW2*%
X125515000Y-86015000D02*
X139485000Y-86015000D01*
X125515000Y-99985000D02*
X125515000Y-86015000D01*
X139485000Y-86015000D02*
X139485000Y-99985000D01*
X139485000Y-99985000D02*
X125515000Y-99985000D01*
%TO.C,SW1*%
X125435000Y-64515000D02*
X139405000Y-64515000D01*
X125435000Y-78485000D02*
X125435000Y-64515000D01*
X139405000Y-64515000D02*
X139405000Y-78485000D01*
X139405000Y-78485000D02*
X125435000Y-78485000D01*
%TO.C,R1*%
X156580000Y-69580000D02*
X160420000Y-69580000D01*
X156580000Y-71420000D02*
X160420000Y-71420000D01*
D13*
%TO.C,D3*%
X145810000Y-68934000D02*
X145810000Y-72066000D01*
X145810000Y-68934000D02*
G75*
G02*
X145810000Y-72066000I2506124J-1566000D01*
G01*
D14*
X145210000Y-70500000D02*
G75*
G02*
X145010000Y-70500000I-100000J0D01*
G01*
X145010000Y-70500000D02*
G75*
G02*
X145210000Y-70500000I100000J0D01*
G01*
D13*
%TO.C,U1*%
X166990000Y-81129000D02*
X166990000Y-63984000D01*
X168895000Y-83034000D02*
X182865000Y-83034000D01*
X171385000Y-62079000D02*
X171388728Y-61168728D01*
X171888728Y-60669000D02*
X179884000Y-60669000D01*
X180384000Y-61169000D02*
X180384000Y-62079000D01*
D15*
X182865000Y-62079000D02*
X168895000Y-62079000D01*
D13*
X182865000Y-62079000D02*
X168895000Y-62079000D01*
X184770000Y-81129000D02*
X184770000Y-63984000D01*
X166990000Y-63984000D02*
G75*
G02*
X168895000Y-62079000I1905000J0D01*
G01*
X168895000Y-83034000D02*
G75*
G02*
X166990000Y-81129000I1J1905001D01*
G01*
X171388728Y-61168728D02*
G75*
G02*
X171888728Y-60669028I499972J-272D01*
G01*
X179884000Y-60669000D02*
G75*
G02*
X180384000Y-61169000I0J-500000D01*
G01*
X182865000Y-62079000D02*
G75*
G02*
X184770000Y-63984000I0J-1905000D01*
G01*
X184770000Y-81129000D02*
G75*
G02*
X182865000Y-83034000I-1905001J1D01*
G01*
D16*
X167182000Y-62320000D02*
G75*
G02*
X166678000Y-62320000I-252000J0D01*
G01*
X166678000Y-62320000D02*
G75*
G02*
X167182000Y-62320000I252000J0D01*
G01*
X168325000Y-63200000D02*
G75*
G02*
X167821000Y-63200000I-252000J0D01*
G01*
X167821000Y-63200000D02*
G75*
G02*
X168325000Y-63200000I252000J0D01*
G01*
D12*
%TO.C,R2*%
X157080000Y-93580000D02*
X160920000Y-93580000D01*
X157080000Y-95420000D02*
X160920000Y-95420000D01*
D13*
%TO.C,D1*%
X145230000Y-92434000D02*
X145230000Y-95566000D01*
X145230000Y-92434000D02*
G75*
G02*
X145230000Y-95566000I2506124J-1566000D01*
G01*
D14*
X144630000Y-94000000D02*
G75*
G02*
X144430000Y-94000000I-100000J0D01*
G01*
X144430000Y-94000000D02*
G75*
G02*
X144630000Y-94000000I100000J0D01*
G01*
%TD*%
M02*
