%TF.GenerationSoftware,KiCad,Pcbnew,9.0.6*%
%TF.CreationDate,2026-04-05T02:04:30+05:30*%
%TF.ProjectId,pathFinder,70617468-4669-46e6-9465-722e6b696361,rev?*%
%TF.SameCoordinates,Original*%
%TF.FileFunction,Soldermask,Top*%
%TF.FilePolarity,Negative*%
%FSLAX46Y46*%
G04 Gerber Fmt 4.6, Leading zero omitted, Abs format (unit mm)*
G04 Created by KiCad (PCBNEW 9.0.6) date 2026-04-05 02:04:30*
%MOMM*%
%LPD*%
G01*
G04 APERTURE LIST*
G04 Aperture macros list*
%AMRoundRect*
0 Rectangle with rounded corners*
0 $1 Rounding radius*
0 $2 $3 $4 $5 $6 $7 $8 $9 X,Y pos of 4 corners*
0 Add a 4 corners polygon primitive as box body*
4,1,4,$2,$3,$4,$5,$6,$7,$8,$9,$2,$3,0*
0 Add four circle primitives for the rounded corners*
1,1,$1+$1,$2,$3*
1,1,$1+$1,$4,$5*
1,1,$1+$1,$6,$7*
1,1,$1+$1,$8,$9*
0 Add four rect primitives between the rounded corners*
20,1,$1+$1,$2,$3,$4,$5,0*
20,1,$1+$1,$4,$5,$6,$7,0*
20,1,$1+$1,$6,$7,$8,$9,0*
20,1,$1+$1,$8,$9,$2,$3,0*%
G04 Aperture macros list end*
%ADD10R,1.800000X1.800000*%
%ADD11C,1.800000*%
%ADD12RoundRect,0.750000X-0.750000X1.250000X-0.750000X-1.250000X0.750000X-1.250000X0.750000X1.250000X0*%
%ADD13C,1.700000*%
%ADD14C,4.000000*%
%ADD15C,2.200000*%
%ADD16C,1.400000*%
%ADD17C,2.019000*%
%ADD18RoundRect,0.102000X-0.907500X-0.907500X0.907500X-0.907500X0.907500X0.907500X-0.907500X0.907500X0*%
%ADD19RoundRect,0.152400X1.063600X0.609600X-1.063600X0.609600X-1.063600X-0.609600X1.063600X-0.609600X0*%
%ADD20C,1.524000*%
%ADD21RoundRect,0.152400X-1.063600X-0.609600X1.063600X-0.609600X1.063600X0.609600X-1.063600X0.609600X0*%
G04 APERTURE END LIST*
D10*
%TO.C,RV1*%
X177000000Y-88450000D03*
D11*
X174500000Y-88450000D03*
X172000000Y-88450000D03*
D12*
X178900000Y-95450000D03*
X170100000Y-95450000D03*
%TD*%
D13*
%TO.C,SW2*%
X127420000Y-93000000D03*
D14*
X132500000Y-93000000D03*
D13*
X137580000Y-93000000D03*
D15*
X135040000Y-87920000D03*
X128690000Y-90460000D03*
%TD*%
D13*
%TO.C,SW1*%
X127340000Y-71500000D03*
D14*
X132420000Y-71500000D03*
D13*
X137500000Y-71500000D03*
D15*
X134960000Y-66420000D03*
X128610000Y-68960000D03*
%TD*%
D16*
%TO.C,R1*%
X155960000Y-70500000D03*
X161040000Y-70500000D03*
%TD*%
D17*
%TO.C,D3*%
X149580000Y-70500000D03*
D18*
X147040000Y-70500000D03*
%TD*%
D19*
%TO.C,U1*%
X167425000Y-65000000D03*
D20*
X168260000Y-65000000D03*
D19*
X167425000Y-67540000D03*
D20*
X168260000Y-67540000D03*
D19*
X167425000Y-70080000D03*
D20*
X168260000Y-70080000D03*
D19*
X167425000Y-72620000D03*
D20*
X168260000Y-72620000D03*
D19*
X167425000Y-75160000D03*
D20*
X168260000Y-75160000D03*
D19*
X167425000Y-77700000D03*
D20*
X168260000Y-77700000D03*
D19*
X167425000Y-80240000D03*
D20*
X168260000Y-80240000D03*
X183500000Y-80240000D03*
D21*
X184335000Y-80240000D03*
D20*
X183500000Y-77700000D03*
D21*
X184335000Y-77700000D03*
D20*
X183500000Y-75160000D03*
D21*
X184335000Y-75160000D03*
D20*
X183500000Y-72620000D03*
D21*
X184335000Y-72620000D03*
D20*
X183500000Y-70080000D03*
D21*
X184335000Y-70080000D03*
D20*
X183500000Y-67540000D03*
D21*
X184335000Y-67540000D03*
D20*
X183500000Y-65000000D03*
D21*
X184335000Y-65000000D03*
%TD*%
D16*
%TO.C,R2*%
X156460000Y-94500000D03*
X161540000Y-94500000D03*
%TD*%
D17*
%TO.C,D1*%
X149000000Y-94000000D03*
D18*
X146460000Y-94000000D03*
%TD*%
M02*
